<svg width="400" height="300" viewBox="0 0 400 300" xmlns="http://www.w3.org/2000/svg">
  <!-- Background -->
  <rect width="400" height="300" fill="#E4DFCA" />
  
  <!-- Coffee Cup -->
  <path d="M250,110 C250,85 230,85 200,85 C170,85 150,85 150,110 L140,210 C140,225 170,240 200,240 C230,240 260,225 260,210 L250,110 Z" fill="#4A3728" />
  
  <!-- Cup Handle -->
  <path d="M260,160 C290,160 290,140 290,130 C290,120 280,110 270,110 L260,110" fill="#4A3728" stroke="#4A3728" stroke-width="5" />
  
  <!-- Steam -->
  <path d="M180,70 C190,55 210,65 205,50 C200,35 220,35 220,50" fill="none" stroke="#9E2B25" stroke-width="3" stroke-linecap="round" />
  <path d="M200,70 C210,55 230,65 225,50 C220,35 240,35 240,50" fill="none" stroke="#9E2B25" stroke-width="3" stroke-linecap="round" />
  
  <!-- Pour Over Dripper -->
  <path d="M180,50 L220,50 L220,85 L180,85 Z" fill="#3F5E2C" />
  <circle cx="200" cy="70" r="15" fill="#E4DFCA" />
  <path d="M190,70 L210,70" stroke="#4A3728" stroke-width="2" />
  <path d="M200,60 L200,80" stroke="#4A3728" stroke-width="2" />
  
  <!-- Text "Brewing Method" -->
  <text x="200" y="270" font-family="Arial" font-size="18" fill="#4A3728" text-anchor="middle">Brewing Method</text>
</svg>